<?xml version="1.0" encoding="UTF-8"?><svg id="Layer_1" xmlns="http://www.w3.org/2000/svg" viewBox="0 0 917.39 111.5"><defs><style>.cls-1{fill:#00fa0b;}.cls-2{fill:#370a4b;}</style></defs><g><path class="cls-1" d="M28.56,55.7l-7.47,11.4v17.9H12.33V15h8.75V50.9L44.38,15h9.83l-19.8,31.3,21.01,38.7h-10.24l-16.63-29.3Z"/><path class="cls-1" d="M68.76,81.35c-3.86-3.1-6.89-7.4-9.09-12.9-2.2-5.5-3.3-11.65-3.3-18.45s1.1-12.95,3.3-18.45c2.2-5.5,5.23-9.8,9.09-12.9,3.86-3.1,8.19-4.65,13-4.65s9.14,1.55,13,4.65c3.86,3.1,6.89,7.38,9.09,12.85,2.2,5.47,3.3,11.63,3.3,18.5s-1.1,13.03-3.3,18.5c-2.2,5.47-5.23,9.75-9.09,12.85-3.86,3.1-8.19,4.65-13,4.65s-9.14-1.55-13-4.65ZM98.86,8h6.26l-40.4,84h-6.26L98.86,8Zm-8.62,63.45c2.51-2.1,4.49-5.03,5.93-8.8,1.44-3.77,2.15-7.98,2.15-12.65s-.72-8.88-2.15-12.65c-1.44-3.77-3.41-6.7-5.93-8.8-2.51-2.1-5.34-3.15-8.48-3.15s-5.97,1.05-8.48,3.15c-2.52,2.1-4.49,5.03-5.93,8.8-1.44,3.77-2.15,7.98-2.15,12.65s.72,8.88,2.15,12.65c1.44,3.77,3.41,6.7,5.93,8.8,2.51,2.1,5.34,3.15,8.48,3.15s5.97-1.05,8.48-3.15Z"/><path class="cls-1" d="M156.04,54.95c1.53,2.97,2.29,6.65,2.29,11.05,0,6.07-1.57,10.75-4.71,14.05-3.14,3.3-7.72,4.95-13.74,4.95h-23.43V15h22.09c5.57,0,9.85,1.62,12.86,4.85,3.01,3.23,4.51,7.68,4.51,13.35,0,3.47-.54,6.53-1.62,9.2-1.08,2.67-2.56,4.73-4.44,6.2,2.6,1.27,4.67,3.38,6.2,6.35Zm-30.84-29.75v19.3h12.39c3.05,0,5.4-.82,7.04-2.45,1.64-1.63,2.46-4.02,2.46-7.15s-.82-5.62-2.46-7.25c-1.64-1.63-3.98-2.45-7.04-2.45h-12.39Zm24.31,39.5c0-6.73-3.39-10.1-10.17-10.1h-14.14v20.2h14.14c6.78,0,10.17-3.37,10.17-10.1Z"/><path class="cls-1" d="M204.45,78.3c-2.11,2.47-4.83,4.37-8.15,5.7-3.32,1.33-6.91,2-10.77,2-4.53,0-8.38-.87-11.55-2.6s-5.56-4.13-7.17-7.2c-1.62-3.07-2.42-6.6-2.42-10.6s.72-7.23,2.15-10.1c1.44-2.87,3.37-4.97,5.79-6.3-1.84-1.47-3.29-3.52-4.34-6.15-1.06-2.63-1.58-5.58-1.58-8.85,0-3.73,.75-7.12,2.26-10.15,1.5-3.03,3.76-5.47,6.77-7.3,3.01-1.83,6.71-2.75,11.11-2.75,2.96,0,5.86,.47,8.69,1.4,2.83,.93,5.3,2.2,7.41,3.8l-2.49,10.3c-3.95-3.07-8.37-4.6-13.27-4.6-3.86,0-6.77,.92-8.72,2.75-1.95,1.83-2.93,4.28-2.93,7.35s.72,5.28,2.16,6.85c1.44,1.57,3.55,2.35,6.33,2.35h12.46v10.8h-12.93c-3.19,0-5.66,.82-7.41,2.45-1.75,1.63-2.63,4.05-2.63,7.25s1.05,5.73,3.17,7.6c2.11,1.87,5.3,2.8,9.56,2.8,2.96,0,5.85-.6,8.65-1.8,2.81-1.2,5.15-2.87,7.04-5l2.83,10Z"/><path class="cls-1" d="M248.46,21.7c3.17,5.13,4.75,12.47,4.75,22v41.3h-8.75V44.2c0-6.2-1-10.88-3-14.05-2-3.17-4.77-4.75-8.32-4.75-3.86,0-6.93,1.68-9.19,5.05-2.27,3.37-3.4,8.38-3.4,15.05v39.5h-8.75V15h8.48v8.8c3.28-6.53,8.26-9.8,14.95-9.8,5.66,0,10.07,2.57,13.23,7.7Z"/><path class="cls-1" d="M307.35,15V85h-8.75v-30h-24.38v30h-8.75V15h8.75v28.9h24.38V15h8.75Z"/><path class="cls-1" d="M351.59,17.7c3.14,2.47,5.58,6.12,7.31,10.95,1.73,4.83,2.59,10.68,2.59,17.55v38.8h-8.75v-18h-24.51v18h-8.62V46.2c0-6.87,.86-12.72,2.59-17.55,1.73-4.83,4.16-8.48,7.31-10.95,3.14-2.47,6.82-3.7,11.04-3.7s7.9,1.23,11.04,3.7Zm1.14,38.4v-11.1c0-6.47-1.08-11.35-3.23-14.65-2.15-3.3-5.16-4.95-9.02-4.95s-6.87,1.65-9.02,4.95c-2.15,3.3-3.23,8.18-3.23,14.65v11.1h24.51Z"/><path class="cls-1" d="M415.5,15l-20.54,70h-8.62l-20.61-70h9.5l15.69,54,15.83-54h8.75Z"/><path class="cls-1" d="M457.15,21.7c3.17,5.13,4.75,12.47,4.75,22v41.3h-8.75V44.2c0-6.2-1-10.88-3-14.05-2-3.17-4.77-4.75-8.32-4.75-3.86,0-6.92,1.68-9.19,5.05-2.27,3.37-3.4,8.38-3.4,15.05v39.5h-8.75V15h8.49v8.8c3.28-6.53,8.26-9.8,14.95-9.8,5.66,0,10.07,2.57,13.23,7.7Z"/><path class="cls-1" d="M510.92,78.3c-2.11,2.47-4.83,4.37-8.15,5.7-3.32,1.33-6.91,2-10.77,2-4.54,0-8.38-.87-11.55-2.6s-5.55-4.13-7.17-7.2c-1.62-3.07-2.42-6.6-2.42-10.6s.72-7.23,2.16-10.1c1.44-2.87,3.37-4.97,5.79-6.3-1.84-1.47-3.29-3.52-4.34-6.15-1.05-2.63-1.58-5.58-1.58-8.85,0-3.73,.75-7.12,2.26-10.15,1.5-3.03,3.76-5.47,6.77-7.3,3.01-1.83,6.71-2.75,11.11-2.75,2.96,0,5.86,.47,8.69,1.4,2.83,.93,5.3,2.2,7.41,3.8l-2.49,10.3c-3.95-3.07-8.37-4.6-13.27-4.6-3.86,0-6.77,.92-8.72,2.75-1.95,1.83-2.93,4.28-2.93,7.35s.72,5.28,2.16,6.85c1.44,1.57,3.55,2.35,6.33,2.35h12.46v10.8h-12.93c-3.19,0-5.66,.82-7.41,2.45-1.75,1.63-2.63,4.05-2.63,7.25s1.05,5.73,3.17,7.6c2.11,1.87,5.3,2.8,9.56,2.8,2.96,0,5.85-.6,8.65-1.8,2.81-1.2,5.15-2.87,7.04-5l2.83,10Z"/><path class="cls-1" d="M549.1,85l-9.63-20.5c-.4,.07-1.01,.1-1.82,.1h-10.64v20.4h-8.75V15h19.39c4.08,0,7.64,1,10.67,3s5.35,4.87,6.97,8.6c1.62,3.73,2.42,8.17,2.42,13.3s-.87,9.8-2.59,13.6c-1.73,3.8-4.21,6.63-7.44,8.5l10.84,23h-9.43Zm-3.17-55.4c-1.98-2.4-4.87-3.6-8.69-3.6h-10.24v27.9h10.24c3.82,0,6.71-1.22,8.69-3.65,1.98-2.43,2.96-5.88,2.96-10.35s-.99-7.9-2.96-10.3Z"/><path class="cls-1" d="M607.08,54.95c1.53,2.97,2.29,6.65,2.29,11.05,0,6.07-1.57,10.75-4.71,14.05-3.14,3.3-7.72,4.95-13.74,4.95h-23.43V15h22.09c5.57,0,9.85,1.62,12.86,4.85,3.01,3.23,4.51,7.68,4.51,13.35,0,3.47-.54,6.53-1.62,9.2-1.08,2.67-2.56,4.73-4.44,6.2,2.6,1.27,4.67,3.38,6.2,6.35Zm-30.84-29.75v19.3h12.39c3.05,0,5.4-.82,7.04-2.45,1.64-1.63,2.46-4.02,2.46-7.15s-.82-5.62-2.46-7.25c-1.64-1.63-3.99-2.45-7.04-2.45h-12.39Zm24.31,39.5c0-6.73-3.39-10.1-10.17-10.1h-14.14v20.2h14.14c6.78,0,10.17-3.37,10.17-10.1Z"/><path class="cls-1" d="M632.54,25.9v48.2h8.69v10.9h-26.06v-10.9h8.69V25.9h-8.69V15h26.06v10.9h-8.69Z"/><path class="cls-1" d="M650.31,15h8.75v59h24.65v11h-33.4V15Z"/><path class="cls-1" d="M690.65,15h8.75v59h24.65v11h-33.4V15Z"/><path class="cls-1" d="M767.42,78.3c-2.11,2.47-4.83,4.37-8.15,5.7-3.32,1.33-6.91,2-10.77,2-4.54,0-8.38-.87-11.55-2.6s-5.55-4.13-7.17-7.2c-1.62-3.07-2.42-6.6-2.42-10.6s.72-7.23,2.16-10.1c1.44-2.87,3.37-4.97,5.79-6.3-1.84-1.47-3.29-3.52-4.34-6.15-1.05-2.63-1.58-5.58-1.58-8.85,0-3.73,.75-7.12,2.26-10.15,1.5-3.03,3.76-5.47,6.77-7.3,3.01-1.83,6.71-2.75,11.11-2.75,2.96,0,5.86,.47,8.69,1.4,2.83,.93,5.3,2.2,7.41,3.8l-2.49,10.3c-3.95-3.07-8.37-4.6-13.27-4.6-3.86,0-6.77,.92-8.72,2.75-1.95,1.83-2.93,4.28-2.93,7.35s.72,5.28,2.16,6.85c1.44,1.57,3.55,2.35,6.33,2.35h12.46v10.8h-12.93c-3.19,0-5.66,.82-7.41,2.45-1.75,1.63-2.63,4.05-2.63,7.25s1.05,5.73,3.17,7.6c2.11,1.87,5.3,2.8,9.56,2.8,2.96,0,5.85-.6,8.65-1.8,2.81-1.2,5.15-2.87,7.04-5l2.83,10Z"/><path class="cls-1" d="M774.76,15h20.61c5.03,0,9.5,1.45,13.4,4.35,3.91,2.9,6.94,7,9.09,12.3,2.15,5.3,3.23,11.42,3.23,18.35s-1.08,13.05-3.23,18.35c-2.16,5.3-5.19,9.4-9.09,12.3-3.91,2.9-8.37,4.35-13.4,4.35h-20.61V15Zm20.2,59c3.46,0,6.5-.98,9.12-2.95,2.63-1.97,4.65-4.77,6.06-8.4,1.41-3.63,2.12-7.85,2.12-12.65s-.71-9.02-2.12-12.65c-1.41-3.63-3.43-6.43-6.06-8.4-2.63-1.97-5.67-2.95-9.12-2.95h-11.45v48h11.45Z"/><path class="cls-1" d="M867.15,78.3c-2.11,2.47-4.83,4.37-8.15,5.7-3.32,1.33-6.91,2-10.77,2-4.54,0-8.38-.87-11.55-2.6s-5.55-4.13-7.17-7.2c-1.62-3.07-2.42-6.6-2.42-10.6s.72-7.23,2.16-10.1c1.44-2.87,3.37-4.97,5.79-6.3-1.84-1.47-3.29-3.52-4.34-6.15-1.05-2.63-1.58-5.58-1.58-8.85,0-3.73,.75-7.12,2.26-10.15,1.5-3.03,3.76-5.47,6.77-7.3,3.01-1.83,6.71-2.75,11.11-2.75,2.96,0,5.86,.47,8.69,1.4,2.83,.93,5.3,2.2,7.41,3.8l-2.49,10.3c-3.95-3.07-8.37-4.6-13.27-4.6-3.86,0-6.77,.92-8.72,2.75-1.95,1.83-2.93,4.28-2.93,7.35s.72,5.28,2.16,6.85c1.44,1.57,3.55,2.35,6.33,2.35h12.46v10.8h-12.93c-3.19,0-5.66,.82-7.41,2.45-1.75,1.63-2.63,4.05-2.63,7.25s1.05,5.73,3.17,7.6c2.11,1.87,5.3,2.8,9.56,2.8,2.96,0,5.85-.6,8.65-1.8,2.81-1.2,5.15-2.87,7.04-5l2.83,10Z"/><path class="cls-1" d="M905.33,85l-9.63-20.5c-.4,.07-1.01,.1-1.82,.1h-10.64v20.4h-8.75V15h19.39c4.08,0,7.64,1,10.67,3s5.35,4.87,6.97,8.6c1.62,3.73,2.42,8.17,2.42,13.3s-.87,9.8-2.59,13.6c-1.73,3.8-4.21,6.63-7.44,8.5l10.84,23h-9.43Zm-3.17-55.4c-1.98-2.4-4.87-3.6-8.69-3.6h-10.24v27.9h10.24c3.82,0,6.71-1.22,8.69-3.65,1.98-2.43,2.96-5.88,2.96-10.35s-.99-7.9-2.96-10.3Z"/></g><g><path class="cls-2" d="M22.56,55.7l-7.47,11.4v17.9H6.33V15H15.08V50.9L38.38,15h9.83l-19.8,31.3,21.01,38.7h-10.24l-16.63-29.3Z"/><path class="cls-2" d="M62.76,81.35c-3.86-3.1-6.89-7.4-9.09-12.9-2.2-5.5-3.3-11.65-3.3-18.45s1.1-12.95,3.3-18.45c2.2-5.5,5.23-9.8,9.09-12.9,3.86-3.1,8.19-4.65,13-4.65s9.14,1.55,13,4.65c3.86,3.1,6.89,7.38,9.09,12.85,2.2,5.47,3.3,11.63,3.3,18.5s-1.1,13.03-3.3,18.5c-2.2,5.47-5.23,9.75-9.09,12.85-3.86,3.1-8.19,4.65-13,4.65s-9.14-1.55-13-4.65ZM92.86,8h6.26L58.72,92h-6.26L92.86,8Zm-8.62,63.45c2.51-2.1,4.49-5.03,5.93-8.8,1.44-3.77,2.15-7.98,2.15-12.65s-.72-8.88-2.15-12.65c-1.44-3.77-3.41-6.7-5.93-8.8-2.51-2.1-5.34-3.15-8.48-3.15s-5.97,1.05-8.48,3.15c-2.52,2.1-4.49,5.03-5.93,8.8-1.44,3.77-2.15,7.98-2.15,12.65s.72,8.88,2.15,12.65c1.44,3.77,3.41,6.7,5.93,8.8,2.51,2.1,5.34,3.15,8.48,3.15s5.97-1.05,8.48-3.15Z"/><path class="cls-2" d="M150.04,54.95c1.53,2.97,2.29,6.65,2.29,11.05,0,6.07-1.57,10.75-4.71,14.05-3.14,3.3-7.72,4.95-13.74,4.95h-23.43V15h22.09c5.57,0,9.85,1.62,12.86,4.85,3.01,3.23,4.51,7.68,4.51,13.35,0,3.47-.54,6.53-1.62,9.2-1.08,2.67-2.56,4.73-4.44,6.2,2.6,1.27,4.67,3.38,6.2,6.35Zm-30.84-29.75v19.3h12.39c3.05,0,5.4-.82,7.04-2.45,1.64-1.63,2.46-4.02,2.46-7.15s-.82-5.62-2.46-7.25c-1.64-1.63-3.98-2.45-7.04-2.45h-12.39Zm24.31,39.5c0-6.73-3.39-10.1-10.17-10.1h-14.14v20.2h14.14c6.78,0,10.17-3.37,10.17-10.1Z"/><path class="cls-2" d="M198.45,78.3c-2.11,2.47-4.83,4.37-8.15,5.7-3.32,1.33-6.91,2-10.77,2-4.53,0-8.38-.87-11.55-2.6s-5.56-4.13-7.17-7.2c-1.62-3.07-2.42-6.6-2.42-10.6s.72-7.23,2.15-10.1c1.44-2.87,3.37-4.97,5.79-6.3-1.84-1.47-3.29-3.52-4.34-6.15-1.06-2.63-1.58-5.58-1.58-8.85,0-3.73,.75-7.12,2.26-10.15,1.5-3.03,3.76-5.47,6.77-7.3,3.01-1.83,6.71-2.75,11.11-2.75,2.96,0,5.86,.47,8.69,1.4,2.83,.93,5.3,2.2,7.41,3.8l-2.49,10.3c-3.95-3.07-8.37-4.6-13.27-4.6-3.86,0-6.77,.92-8.72,2.75-1.95,1.83-2.93,4.28-2.93,7.35s.72,5.28,2.16,6.85c1.44,1.57,3.55,2.35,6.33,2.35h12.46v10.8h-12.93c-3.19,0-5.66,.82-7.41,2.45-1.75,1.63-2.63,4.05-2.63,7.25s1.05,5.73,3.17,7.6c2.11,1.87,5.3,2.8,9.56,2.8,2.96,0,5.85-.6,8.65-1.8,2.81-1.2,5.15-2.87,7.04-5l2.83,10Z"/><path class="cls-2" d="M242.46,21.7c3.17,5.13,4.75,12.47,4.75,22v41.3h-8.75V44.2c0-6.2-1-10.88-3-14.05-2-3.17-4.77-4.75-8.32-4.75-3.86,0-6.93,1.68-9.19,5.05-2.27,3.37-3.4,8.38-3.4,15.05v39.5h-8.75V15h8.48v8.8c3.28-6.53,8.26-9.8,14.95-9.8,5.66,0,10.07,2.57,13.23,7.7Z"/><path class="cls-2" d="M301.35,15V85h-8.75v-30h-24.38v30h-8.75V15h8.75v28.9h24.38V15h8.75Z"/><path class="cls-2" d="M345.59,17.7c3.14,2.47,5.58,6.12,7.31,10.95,1.73,4.83,2.59,10.68,2.59,17.55v38.8h-8.75v-18h-24.51v18h-8.62V46.2c0-6.87,.86-12.72,2.59-17.55,1.73-4.83,4.16-8.48,7.31-10.95,3.14-2.47,6.82-3.7,11.04-3.7s7.9,1.23,11.04,3.7Zm1.14,38.4v-11.1c0-6.47-1.08-11.35-3.23-14.65-2.15-3.3-5.16-4.95-9.02-4.95s-6.87,1.65-9.02,4.95c-2.15,3.3-3.23,8.18-3.23,14.65v11.1h24.51Z"/><path class="cls-2" d="M409.5,15l-20.54,70h-8.62l-20.61-70h9.5l15.69,54,15.83-54h8.75Z"/><path class="cls-2" d="M451.15,21.7c3.17,5.13,4.75,12.47,4.75,22v41.3h-8.75V44.2c0-6.2-1-10.88-3-14.05-2-3.17-4.77-4.75-8.32-4.75-3.86,0-6.92,1.68-9.19,5.05-2.27,3.37-3.4,8.38-3.4,15.05v39.5h-8.75V15h8.49v8.8c3.28-6.53,8.26-9.8,14.95-9.8,5.66,0,10.07,2.57,13.23,7.7Z"/><path class="cls-2" d="M504.92,78.3c-2.11,2.47-4.83,4.37-8.15,5.7-3.32,1.33-6.91,2-10.77,2-4.54,0-8.38-.87-11.55-2.6s-5.55-4.13-7.17-7.2c-1.62-3.07-2.42-6.6-2.42-10.6s.72-7.23,2.16-10.1c1.44-2.87,3.37-4.97,5.79-6.3-1.84-1.47-3.29-3.52-4.34-6.15-1.05-2.63-1.58-5.58-1.58-8.85,0-3.73,.75-7.12,2.26-10.15,1.5-3.03,3.76-5.47,6.77-7.3,3.01-1.83,6.71-2.75,11.11-2.75,2.96,0,5.86,.47,8.69,1.4,2.83,.93,5.3,2.2,7.41,3.8l-2.49,10.3c-3.95-3.07-8.37-4.6-13.27-4.6-3.86,0-6.77,.92-8.72,2.75-1.95,1.83-2.93,4.28-2.93,7.35s.72,5.28,2.16,6.85c1.44,1.57,3.55,2.35,6.33,2.35h12.46v10.8h-12.93c-3.19,0-5.66,.82-7.41,2.45-1.75,1.63-2.63,4.05-2.63,7.25s1.05,5.73,3.17,7.6c2.11,1.87,5.3,2.8,9.56,2.8,2.96,0,5.85-.6,8.65-1.8,2.81-1.2,5.15-2.87,7.04-5l2.83,10Z"/><path class="cls-2" d="M543.1,85l-9.63-20.5c-.4,.07-1.01,.1-1.82,.1h-10.64v20.4h-8.75V15h19.39c4.08,0,7.64,1,10.67,3s5.35,4.87,6.97,8.6c1.62,3.73,2.42,8.17,2.42,13.3s-.87,9.8-2.59,13.6c-1.73,3.8-4.21,6.63-7.44,8.5l10.84,23h-9.43Zm-3.17-55.4c-1.98-2.4-4.87-3.6-8.69-3.6h-10.24v27.9h10.24c3.82,0,6.71-1.22,8.69-3.65,1.98-2.43,2.96-5.88,2.96-10.35s-.99-7.9-2.96-10.3Z"/><path class="cls-2" d="M601.08,54.95c1.53,2.97,2.29,6.65,2.29,11.05,0,6.07-1.57,10.75-4.71,14.05-3.14,3.3-7.72,4.95-13.74,4.95h-23.43V15h22.09c5.57,0,9.85,1.62,12.86,4.85,3.01,3.23,4.51,7.68,4.51,13.35,0,3.47-.54,6.53-1.62,9.2-1.08,2.67-2.56,4.73-4.44,6.2,2.6,1.27,4.67,3.38,6.2,6.35Zm-30.84-29.75v19.3h12.39c3.05,0,5.4-.82,7.04-2.45,1.64-1.63,2.46-4.02,2.46-7.15s-.82-5.62-2.46-7.25c-1.64-1.63-3.99-2.45-7.04-2.45h-12.39Zm24.31,39.5c0-6.73-3.39-10.1-10.17-10.1h-14.14v20.2h14.14c6.78,0,10.17-3.37,10.17-10.1Z"/><path class="cls-2" d="M626.54,25.9v48.2h8.69v10.9h-26.06v-10.9h8.69V25.9h-8.69V15h26.06v10.9h-8.69Z"/><path class="cls-2" d="M644.31,15h8.75v59h24.65v11h-33.4V15Z"/><path class="cls-2" d="M684.65,15h8.75v59h24.65v11h-33.4V15Z"/><path class="cls-2" d="M761.42,78.3c-2.11,2.47-4.83,4.37-8.15,5.7-3.32,1.33-6.91,2-10.77,2-4.54,0-8.38-.87-11.55-2.6s-5.55-4.13-7.17-7.2c-1.62-3.07-2.42-6.6-2.42-10.6s.72-7.23,2.16-10.1c1.44-2.87,3.37-4.97,5.79-6.3-1.84-1.47-3.29-3.52-4.34-6.15-1.05-2.63-1.58-5.58-1.58-8.85,0-3.73,.75-7.12,2.26-10.15,1.5-3.03,3.76-5.47,6.77-7.3,3.01-1.83,6.71-2.75,11.11-2.75,2.96,0,5.86,.47,8.69,1.4,2.83,.93,5.3,2.2,7.41,3.8l-2.49,10.3c-3.95-3.07-8.37-4.6-13.27-4.6-3.86,0-6.77,.92-8.72,2.75-1.95,1.83-2.93,4.28-2.93,7.35s.72,5.28,2.16,6.85c1.44,1.57,3.55,2.35,6.33,2.35h12.46v10.8h-12.93c-3.19,0-5.66,.82-7.41,2.45-1.75,1.63-2.63,4.05-2.63,7.25s1.05,5.73,3.17,7.6c2.11,1.87,5.3,2.8,9.56,2.8,2.96,0,5.85-.6,8.65-1.8,2.81-1.2,5.15-2.87,7.04-5l2.83,10Z"/><path class="cls-2" d="M768.76,15h20.61c5.03,0,9.5,1.45,13.4,4.35,3.91,2.9,6.94,7,9.09,12.3,2.15,5.3,3.23,11.42,3.23,18.35s-1.08,13.05-3.23,18.35c-2.16,5.3-5.19,9.4-9.09,12.3-3.91,2.9-8.37,4.35-13.4,4.35h-20.61V15Zm20.2,59c3.46,0,6.5-.98,9.12-2.95,2.63-1.97,4.65-4.77,6.06-8.4,1.41-3.63,2.12-7.85,2.12-12.65s-.71-9.02-2.12-12.65c-1.41-3.63-3.43-6.43-6.06-8.4-2.63-1.97-5.67-2.95-9.12-2.95h-11.45v48h11.45Z"/><path class="cls-2" d="M861.15,78.3c-2.11,2.47-4.83,4.37-8.15,5.7-3.32,1.33-6.91,2-10.77,2-4.54,0-8.38-.87-11.55-2.6s-5.55-4.13-7.17-7.2c-1.62-3.07-2.42-6.6-2.42-10.6s.72-7.23,2.16-10.1c1.44-2.87,3.37-4.97,5.79-6.3-1.84-1.47-3.29-3.52-4.34-6.15-1.05-2.63-1.58-5.58-1.58-8.85,0-3.73,.75-7.12,2.26-10.15,1.5-3.03,3.76-5.47,6.77-7.3,3.01-1.83,6.71-2.75,11.11-2.75,2.96,0,5.86,.47,8.69,1.4,2.83,.93,5.3,2.2,7.41,3.8l-2.49,10.3c-3.95-3.07-8.37-4.6-13.27-4.6-3.86,0-6.77,.92-8.72,2.75-1.95,1.83-2.93,4.28-2.93,7.35s.72,5.28,2.16,6.85c1.44,1.57,3.55,2.35,6.33,2.35h12.46v10.8h-12.93c-3.19,0-5.66,.82-7.41,2.45-1.75,1.63-2.63,4.05-2.63,7.25s1.05,5.73,3.17,7.6c2.11,1.87,5.3,2.8,9.56,2.8,2.96,0,5.85-.6,8.65-1.8,2.81-1.2,5.15-2.87,7.04-5l2.83,10Z"/><path class="cls-2" d="M899.33,85l-9.63-20.5c-.4,.07-1.01,.1-1.82,.1h-10.64v20.4h-8.75V15h19.39c4.08,0,7.64,1,10.67,3s5.35,4.87,6.97,8.6c1.62,3.73,2.42,8.17,2.42,13.3s-.87,9.8-2.59,13.6c-1.73,3.8-4.21,6.63-7.44,8.5l10.84,23h-9.43Zm-3.17-55.4c-1.98-2.4-4.87-3.6-8.69-3.6h-10.24v27.9h10.24c3.82,0,6.71-1.22,8.69-3.65,1.98-2.43,2.96-5.88,2.96-10.35s-.99-7.9-2.96-10.3Z"/></g></svg>